<?xml version="1.0" encoding="utf-8"?><!-- Uploaded to: SVG Repo, www.svgrepo.com, Generator: SVG Repo Mixer Tools -->
<svg version="1.1" id="designs" xmlns="http://www.w3.org/2000/svg"
    xmlns:xlink="http://www.w3.org/1999/xlink" width="800px" height="800px" viewBox="0 0 32 32"
    xml:space="preserve">
<style type="text/css">
	.sketchy_een{fill:#111918;}
</style>
    <path class="sketchy_een" d="M29.495,23.977c-0.042-0.63-0.106-1.274-0.341-1.868c-0.135-0.347-0.276-0.69-0.474-1.006
	c-0.129-0.208-0.283-0.401-0.457-0.572c-0.191-0.187-0.434-0.335-0.663-0.47c-0.274-0.162-0.544-0.307-0.838-0.428
	c-0.154-0.063-0.322-0.098-0.482-0.139c-0.183-0.046-0.364-0.093-0.545-0.139c-0.295-0.073-0.586-0.133-0.887-0.171
	c-0.119-0.015-0.237-0.02-0.356-0.02c-0.105,0-0.211,0.004-0.317,0.006c-0.526,0.012-1.05,0.012-1.575,0.039
	c-1.144,0.06-2.287,0.126-3.433,0.149c-0.066-0.127-0.133-0.252-0.193-0.382c-0.124-0.322-0.214-0.651-0.272-0.989
	c-0.067-0.636-0.021-1.289,0.057-1.923c0.053-0.38,0.112-0.766,0.226-1.131c0.056-0.181,0.129-0.355,0.197-0.528
	c0.078-0.199,0.148-0.402,0.224-0.601c0.147-0.313,0.33-0.609,0.487-0.916c0.2-0.393,0.387-0.786,0.557-1.195
	c0.146-0.351,0.279-0.702,0.374-1.07c0.102-0.397,0.206-0.798,0.276-1.203c0.079-0.464,0.091-0.921,0.083-1.392
	c-0.006-0.449-0.041-0.89-0.106-1.336C20.984,6.347,20.884,6,20.766,5.67c-0.091-0.254-0.195-0.503-0.312-0.746
	c-0.091-0.189-0.179-0.389-0.297-0.565c-0.208-0.314-0.459-0.634-0.736-0.892c-0.241-0.224-0.513-0.412-0.783-0.601
	c-0.193-0.135-0.395-0.254-0.603-0.362c-0.166-0.085-0.339-0.156-0.522-0.191c-0.141-0.029-0.283-0.056-0.426-0.087
	c-0.368-0.085-0.73-0.154-1.104-0.2C15.842,2.008,15.705,2,15.57,2c-0.221,0-0.438,0.021-0.666,0.058
	c-0.258,0.042-0.501,0.154-0.748,0.235C13.863,2.39,13.579,2.5,13.302,2.631c-0.305,0.143-0.586,0.32-0.852,0.522
	c-0.152,0.116-0.303,0.231-0.432,0.372c-0.152,0.166-0.285,0.351-0.416,0.534c-0.497,0.698-0.941,1.455-1.124,2.299
	c-0.094,0.438-0.172,0.881-0.21,1.324c-0.035,0.387-0.006,0.777,0.023,1.162c0.062,0.775,0.177,1.565,0.449,2.295
	c0.08,0.218,0.169,0.432,0.26,0.647c-0.001-0.002-0.001-0.003-0.002-0.005c0.096,0.227,0.179,0.463,0.266,0.696
	c0.093,0.254,0.205,0.497,0.315,0.745c0.108,0.266,0.206,0.537,0.291,0.81c0.098,0.313,0.151,0.639,0.201,0.963
	c0.063,0.575,0.037,1.152-0.03,1.725c-0.069,0.464-0.167,0.935-0.331,1.374c-0.094,0.19-0.213,0.365-0.331,0.539
	c-0.164,0.243-0.325,0.485-0.479,0.733c-0.461,0.022-0.925,0.024-1.383,0.024c-0.239,0.002-0.478,0-0.717-0.002
	c-0.422-0.002-0.846-0.006-1.268,0.004c-0.36,0.01-0.719,0.01-1.077,0.015c-0.409,0.006-0.835,0.004-1.232,0.114
	c-0.262,0.073-0.507,0.218-0.734,0.364c-0.216,0.139-0.42,0.293-0.624,0.451c-0.224,0.174-0.405,0.401-0.576,0.623
	c-0.12,0.156-0.229,0.314-0.326,0.486c-0.12,0.21-0.204,0.447-0.281,0.676c-0.062,0.181-0.112,0.364-0.145,0.553
	c-0.077,0.426-0.073,0.854-0.06,1.286c0.023,0.8,0.245,1.565,0.463,2.328c0.097,0.338,0.398,0.565,0.733,0.593
	c0.107,0.054,0.222,0.092,0.348,0.092c0.034,0,0.069-0.001,0.103-0.001c-0.013,0.33-0.024,0.661-0.014,0.993
	c0.007,0.256,0.019,0.514-0.008,0.768c-0.035,0.256-0.051,0.513,0.098,0.749c0.247,0.387,0.634,0.509,1.072,0.517
	c0.378,0.006,0.758-0.014,1.135-0.035c0.835-0.046,1.667-0.089,2.502-0.108c1.679-0.037,3.359-0.017,5.038-0.079
	c0.434-0.015,0.865-0.029,1.299-0.037c0.403-0.008,0.806-0.002,1.21-0.021c0.829-0.042,1.658-0.077,2.486-0.094
	c1.592-0.031,3.182-0.123,4.774-0.093c0.464,0.01,0.929,0.008,1.392,0.027c0.181,0.008,0.362,0.015,0.545,0.021
	c0.087,0.004,0.173,0.008,0.26,0.014c0.107,0.01,0.204,0.004,0.304-0.008c0.21,0.136,0.481,0.189,0.715,0.125
	c0.216-0.06,0.403-0.204,0.517-0.399c0.129-0.22,0.121-0.424,0.087-0.667c0-0.001,0-0.002,0-0.003
	c0.01,0.069,0.019,0.137,0.027,0.206c-0.031-0.297-0.039-0.599-0.062-0.898c-0.032-0.39-0.089-0.778-0.141-1.167
	c0.322,0.01,0.646,0.022,0.969,0.016c0.097,0.009,0.191,0.011,0.284-0.009c0.196-0.019,0.371-0.075,0.518-0.22
	c0.145-0.146,0.227-0.347,0.227-0.553l0-0.001c0.089-0.343,0.146-0.69,0.169-1.046C29.545,24.64,29.518,24.306,29.495,23.977z
	 M25.476,27.842c-0.268-0.002-0.538,0.002-0.806,0.004c-0.725,0.008-1.449,0.033-2.174,0.046c-0.825,0.017-1.65,0.035-2.475,0.064
	c-0.798,0.027-1.598,0.073-2.396,0.104c-1.659,0.064-3.317,0.189-4.976,0.216c-0.848,0.013-1.696,0.029-2.544,0.041
	c-0.829,0.011-1.658,0.017-2.486,0.05c-0.606,0.025-1.219,0.072-1.827,0.045c-0.005-0.095-0.015-0.19-0.021-0.284
	c-0.029-0.393-0.01-0.78,0.011-1.172C6,26.952,6.218,26.954,6.435,26.949c0.73-0.017,1.461-0.058,2.193-0.075
	c0.732-0.017,1.469-0.012,2.201,0.002c0.748,0.015,1.496,0.014,2.243,0.044c0.769,0.035,1.54,0.058,2.309,0.027
	c0.784-0.031,1.569-0.068,2.353-0.077c1.503-0.017,3.005-0.027,4.508-0.039c0.584-0.004,1.17-0.014,1.754-0.021
	c0.249-0.004,0.497,0.002,0.746-0.01c0.272-0.013,0.544-0.022,0.817-0.026c0.034,0.227,0.07,0.451,0.104,0.677
	c0.016,0.13,0.022,0.262,0.032,0.393C25.622,27.844,25.546,27.842,25.476,27.842z M27.089,25.224c-0.127,0-0.254,0.002-0.382,0
	c-0.75-0.002-1.501,0.023-2.249,0.067c-0.786,0.046-1.58,0.041-2.369,0.035c-0.775-0.008-1.552-0.004-2.326-0.002
	c-0.723,0.004-1.444,0.037-2.166,0.06c-0.387,0.014-0.777,0.014-1.164,0.025c-0.407,0.013-0.813,0.035-1.22,0.05
	c-0.759,0.031-1.521-0.031-2.278-0.06c-0.385-0.015-0.771-0.017-1.158-0.025c-0.359-0.006-0.717-0.023-1.077-0.029
	c-0.515-0.008-1.031,0.006-1.546,0.014c-0.574,0.01-1.149,0.004-1.723,0.019c-0.52,0.014-1.037,0.044-1.557,0.04
	c-0.497-0.005-0.994-0.016-1.491-0.025c-0.048-0.154-0.096-0.307-0.141-0.461c-0.073-0.246-0.124-0.496-0.164-0.749
	c-0.047-0.407-0.065-0.832-0.027-1.24c0.048-0.233,0.11-0.461,0.188-0.685c0.083-0.168,0.179-0.324,0.286-0.478
	c0.122-0.146,0.248-0.28,0.394-0.405c0.194-0.143,0.391-0.282,0.602-0.396c0.068-0.023,0.136-0.042,0.206-0.057
	c0.346-0.031,0.695-0.029,1.043-0.027c0.127,0.002,0.254,0.002,0.382,0c0.478-0.006,0.958-0.01,1.436,0.004
	c0.486,0.013,0.969,0.029,1.455,0.033c0.254,0.002,0.509-0.002,0.763-0.008c0.231-0.006,0.457-0.031,0.686-0.048
	c0.21-0.015,0.393-0.073,0.547-0.228c0.081-0.081,0.136-0.181,0.174-0.288c0.044-0.045,0.094-0.084,0.129-0.141
	c0.389-0.638,0.811-1.27,1.02-1.997c0.202-0.711,0.326-1.469,0.351-2.209c0.023-0.723-0.027-1.476-0.187-2.184
	c-0.14-0.612-0.409-1.182-0.658-1.755c-0.163-0.41-0.304-0.829-0.46-1.242c-0.166-0.439-0.29-0.887-0.357-1.351
	c-0.083-0.705-0.121-1.403-0.048-2.112c0.063-0.397,0.154-0.785,0.296-1.161c0.202-0.433,0.47-0.842,0.755-1.225
	c0.127-0.152,0.264-0.292,0.417-0.417c0.127-0.095,0.257-0.188,0.395-0.264c0.109-0.061,0.224-0.118,0.34-0.17
	c0.167-0.061,0.346-0.096,0.516-0.142c0.181-0.05,0.355-0.107,0.538-0.145c0.223-0.015,0.442-0.004,0.664,0.021
	c0.214,0.037,0.425,0.085,0.638,0.13c0.189,0.04,0.383,0.067,0.569,0.125c0.278,0.142,0.535,0.327,0.788,0.509
	c0.216,0.182,0.411,0.385,0.591,0.603c0.177,0.249,0.322,0.528,0.447,0.806c0.159,0.401,0.288,0.817,0.356,1.242
	c0.066,0.593,0.079,1.195,0.022,1.789c-0.12,0.715-0.335,1.408-0.609,2.077c-0.132,0.298-0.273,0.592-0.428,0.879
	c-0.181,0.337-0.376,0.665-0.524,1.018c-0.17,0.403-0.303,0.815-0.451,1.226c-0.044,0.125-0.087,0.249-0.121,0.376
	c-0.05,0.193-0.067,0.399-0.096,0.597c-0.227,1.602-0.337,3.392,0.522,4.842c0.039,0.065,0.079,0.131,0.118,0.198
	c0.148,0.247,0.412,0.379,0.685,0.392c0.149,0.183,0.364,0.308,0.612,0.301c1.037-0.027,2.07-0.137,3.107-0.166
	c0.466-0.014,0.931-0.021,1.397-0.029c0.385-0.005,0.78-0.022,1.165,0.016c0.462,0.074,0.933,0.186,1.372,0.348
	c0.125,0.061,0.244,0.132,0.362,0.207c0.182,0.114,0.367,0.224,0.543,0.347c0.054,0.051,0.104,0.103,0.152,0.159
	c0.097,0.145,0.181,0.297,0.256,0.455c0.097,0.247,0.187,0.503,0.233,0.763c0.071,0.629,0.101,1.269,0.042,1.899
	c-0.017,0.084-0.038,0.167-0.06,0.25c-0.063-0.001-0.126-0.002-0.189-0.002C27.31,25.222,27.199,25.223,27.089,25.224z
	 M16.42,11.917c-0.397-0.233-0.517-0.74-0.299-1.137c0.048-0.084,0.091-0.17,0.132-0.257c0.107-0.272,0.207-0.547,0.304-0.824
	c0.086-0.249,0.142-0.507,0.184-0.769c0.043-0.427,0.029-0.874-0.021-1.3c-0.086-0.462-0.296-0.884-0.474-1.315
	c-0.079-0.193-0.017-0.463,0.083-0.634c0.108-0.183,0.285-0.32,0.491-0.378c0.07-0.019,0.143-0.029,0.215-0.029
	c0.146,0,0.291,0.038,0.417,0.111c0.202,0.118,0.293,0.283,0.378,0.492c0.193,0.474,0.428,0.954,0.507,1.463
	c0.075,0.484,0.121,0.987,0.1,1.478c-0.042,0.993-0.428,1.929-0.881,2.801C17.347,12.02,16.796,12.137,16.42,11.917z" />
</svg>